{
  "version": "1.1.6",
  "modules": [
    {
      "id": 1,
      "plugin": "Core",
      "version": "1.1.6",
      "model": "AudioInterface",
      "params": [],
      "leftModuleId": 2,
      "rightModuleId": 24,
      "data": {
        "audio": {
          "driver": 5,
          "deviceName": "Apple Inc.: Built-in Output",
          "offset": 0,
          "maxChannels": 8,
          "sampleRate": 44100,
          "blockSize": 4096
        }
      },
      "pos": [
        95,
        2
      ]
    },
    {
      "id": 2,
      "plugin": "Fundamental",
      "version": "1.4.0",
      "model": "VCMixer",
      "params": [
        {
          "id": 0,
          "value": 1.66699851
        },
        {
          "id": 1,
          "value": 0.418758482
        },
        {
          "id": 2,
          "value": 0.635133207
        },
        {
          "id": 3,
          "value": 0.783625245
        },
        {
          "id": 4,
          "value": 0.181169197
        }
      ],
      "leftModuleId": 7,
      "rightModuleId": 1,
      "pos": [
        85,
        2
      ]
    },
    {
      "id": 3,
      "plugin": "Fundamental",
      "version": "1.4.0",
      "model": "VCO",
      "params": [
        {
          "id": 0,
          "value": 1.0
        },
        {
          "id": 1,
          "value": 1.0
        },
        {
          "id": 2,
          "value": -21.5459557
        },
        {
          "id": 3,
          "value": 0.00200024992
        },
        {
          "id": 4,
          "value": 0.484499991
        },
        {
          "id": 5,
          "value": 0.514699638
        },
        {
          "id": 6,
          "value": 0.690999866
        }
      ],
      "leftModuleId": 5,
      "rightModuleId": 4,
      "pos": [
        46,
        2
      ]
    },
    {
      "id": 4,
      "plugin": "Fundamental",
      "version": "1.4.0",
      "model": "VCF",
      "params": [
        {
          "id": 0,
          "value": 0.373500139
        },
        {
          "id": 1,
          "value": 0.5
        },
        {
          "id": 2,
          "value": 0.234000027
        },
        {
          "id": 3,
          "value": 1.0
        },
        {
          "id": 4,
          "value": 0.0
        }
      ],
      "leftModuleId": 3,
      "rightModuleId": 6,
      "pos": [
        56,
        2
      ]
    },
    {
      "id": 5,
      "plugin": "Core",
      "version": "1.1.6",
      "model": "MIDIToCVInterface",
      "params": [],
      "rightModuleId": 3,
      "data": {
        "channels": 1,
        "polyMode": 0,
        "clockDivision": 24,
        "lastPitch": 8192,
        "lastMod": 0,
        "midi": {
          "driver": 1,
          "deviceName": "IAC Driver IAC Bus 4",
          "channel": -1
        }
      },
      "pos": [
        38,
        2
      ]
    },
    {
      "id": 6,
      "plugin": "Fundamental",
      "version": "1.4.0",
      "model": "ADSR",
      "params": [
        {
          "id": 0,
          "value": 0.436500072
        },
        {
          "id": 1,
          "value": 0.666499913
        },
        {
          "id": 2,
          "value": 0.336500108
        },
        {
          "id": 3,
          "value": 0.715999007
        }
      ],
      "leftModuleId": 4,
      "rightModuleId": 7,
      "pos": [
        64,
        2
      ]
    },
    {
      "id": 7,
      "plugin": "Fundamental",
      "version": "1.4.0",
      "model": "Scope",
      "params": [
        {
          "id": 0,
          "value": 0.0
        },
        {
          "id": 1,
          "value": 0.0
        },
        {
          "id": 2,
          "value": 0.0
        },
        {
          "id": 3,
          "value": 0.0
        },
        {
          "id": 4,
          "value": 14.0
        },
        {
          "id": 5,
          "value": 0.0
        },
        {
          "id": 6,
          "value": 0.0
        },
        {
          "id": 7,
          "value": 0.0
        }
      ],
      "leftModuleId": 6,
      "rightModuleId": 2,
      "data": {
        "lissajous": 0,
        "external": 0
      },
      "pos": [
        72,
        2
      ]
    },
    {
      "id": 8,
      "plugin": "Core",
      "version": "1.1.6",
      "model": "Notes",
      "params": [],
      "text": "Demo patch instructions:\n\n1. Choose an audio driver and device in the AUDIO-8 module.\n\n2. Use the QWERTY and ZXCVB rows of your keyboard to generate MIDI notes, which are converted to 1V/oct and GATE signals.\n\n3. Drag knobs up/down. Hold Ctrl (Cmd on Mac) while dragging to fine-tune. Right-click knobs to edit, or double-click to initialize.\n\n4. Drag ports to create and move cables. Stack multiple cables on outputs by holding Ctrl (Cmd on Mac) and dragging from an output.\n\n5. Right-click on an empty rack space to add new modules.",
      "pos": [
        0,
        2
      ]
    },
    {
      "id": 9,
      "plugin": "Core",
      "version": "1.1.6",
      "model": "MIDIToCVInterface",
      "params": [],
      "rightModuleId": 10,
      "data": {
        "channels": 1,
        "polyMode": 0,
        "clockDivision": 24,
        "lastPitch": 8192,
        "lastMod": 0,
        "midi": {
          "driver": -11,
          "deviceName": "QWERTY keyboard (US)",
          "channel": -1
        }
      },
      "pos": [
        0,
        1
      ]
    },
    {
      "id": 10,
      "plugin": "Fundamental",
      "version": "1.4.0",
      "model": "VCO",
      "params": [
        {
          "id": 0,
          "value": 1.0
        },
        {
          "id": 1,
          "value": 1.0
        },
        {
          "id": 2,
          "value": 1.62004232
        },
        {
          "id": 3,
          "value": 0.00200024992
        },
        {
          "id": 4,
          "value": 0.484499991
        },
        {
          "id": 5,
          "value": 0.514699638
        },
        {
          "id": 6,
          "value": 0.055499848
        }
      ],
      "leftModuleId": 9,
      "rightModuleId": 12,
      "pos": [
        8,
        1
      ]
    },
    {
      "id": 11,
      "plugin": "Fundamental",
      "version": "1.4.0",
      "model": "ADSR",
      "params": [
        {
          "id": 0,
          "value": 0.547499895
        },
        {
          "id": 1,
          "value": 0.118499801
        },
        {
          "id": 2,
          "value": 0.76450026
        },
        {
          "id": 3,
          "value": 0.771500349
        }
      ],
      "leftModuleId": 12,
      "pos": [
        26,
        1
      ]
    },
    {
      "id": 12,
      "plugin": "Fundamental",
      "version": "1.4.0",
      "model": "VCF",
      "params": [
        {
          "id": 0,
          "value": 0.935500026
        },
        {
          "id": 1,
          "value": 0.5
        },
        {
          "id": 2,
          "value": 0.234000027
        },
        {
          "id": 3,
          "value": 1.0
        },
        {
          "id": 4,
          "value": 0.0
        }
      ],
      "leftModuleId": 10,
      "rightModuleId": 11,
      "pos": [
        18,
        1
      ]
    },
    {
      "id": 13,
      "plugin": "Fundamental",
      "version": "1.4.0",
      "model": "Scope",
      "params": [
        {
          "id": 0,
          "value": 0.0
        },
        {
          "id": 1,
          "value": 0.0
        },
        {
          "id": 2,
          "value": 0.0
        },
        {
          "id": 3,
          "value": 0.0
        },
        {
          "id": 4,
          "value": 14.0
        },
        {
          "id": 5,
          "value": 0.0
        },
        {
          "id": 6,
          "value": 0.0
        },
        {
          "id": 7,
          "value": 0.0
        }
      ],
      "data": {
        "lissajous": 0,
        "external": 0
      },
      "pos": [
        0,
        0
      ]
    },
    {
      "id": 14,
      "plugin": "Fundamental",
      "version": "1.4.0",
      "model": "VCO",
      "params": [
        {
          "id": 0,
          "value": 1.0
        },
        {
          "id": 1,
          "value": 1.0
        },
        {
          "id": 2,
          "value": -15.7140112
        },
        {
          "id": 3,
          "value": -0.621999741
        },
        {
          "id": 4,
          "value": 0.431999892
        },
        {
          "id": 5,
          "value": 0.429439515
        },
        {
          "id": 6,
          "value": 0.055499848
        }
      ],
      "leftModuleId": 15,
      "rightModuleId": 16,
      "pos": [
        46,
        1
      ]
    },
    {
      "id": 15,
      "plugin": "Core",
      "version": "1.1.6",
      "model": "MIDIToCVInterface",
      "params": [],
      "rightModuleId": 14,
      "data": {
        "channels": 1,
        "polyMode": 0,
        "clockDivision": 24,
        "lastPitch": 8192,
        "lastMod": 0,
        "midi": {
          "driver": 1,
          "deviceName": "IAC Driver IAC Bus 2",
          "channel": -1
        }
      },
      "pos": [
        38,
        1
      ]
    },
    {
      "id": 16,
      "plugin": "Fundamental",
      "version": "1.4.0",
      "model": "VCF",
      "params": [
        {
          "id": 0,
          "value": 0.323499978
        },
        {
          "id": 1,
          "value": 0.5
        },
        {
          "id": 2,
          "value": 0.234000027
        },
        {
          "id": 3,
          "value": 1.0
        },
        {
          "id": 4,
          "value": 0.0
        }
      ],
      "leftModuleId": 14,
      "rightModuleId": 17,
      "pos": [
        56,
        1
      ]
    },
    {
      "id": 17,
      "plugin": "Fundamental",
      "version": "1.4.0",
      "model": "ADSR",
      "params": [
        {
          "id": 0,
          "value": 0.519000828
        },
        {
          "id": 1,
          "value": 0.361001343
        },
        {
          "id": 2,
          "value": 0.73650074
        },
        {
          "id": 3,
          "value": 0.70000273
        }
      ],
      "leftModuleId": 16,
      "rightModuleId": 18,
      "pos": [
        64,
        1
      ]
    },
    {
      "id": 18,
      "plugin": "Fundamental",
      "version": "1.4.0",
      "model": "Scope",
      "params": [
        {
          "id": 0,
          "value": 0.0
        },
        {
          "id": 1,
          "value": 0.0
        },
        {
          "id": 2,
          "value": 0.0
        },
        {
          "id": 3,
          "value": 0.0
        },
        {
          "id": 4,
          "value": 14.0
        },
        {
          "id": 5,
          "value": 0.0
        },
        {
          "id": 6,
          "value": 0.0
        },
        {
          "id": 7,
          "value": 0.0
        }
      ],
      "leftModuleId": 17,
      "data": {
        "lissajous": 0,
        "external": 0
      },
      "pos": [
        72,
        1
      ]
    },
    {
      "id": 19,
      "plugin": "Core",
      "version": "1.1.6",
      "model": "MIDIToCVInterface",
      "params": [],
      "rightModuleId": 20,
      "data": {
        "channels": 1,
        "polyMode": 0,
        "clockDivision": 24,
        "lastPitch": 8192,
        "lastMod": 0,
        "midi": {
          "driver": 1,
          "deviceName": "IAC Driver IAC Bus 5",
          "channel": -1
        }
      },
      "pos": [
        38,
        3
      ]
    },
    {
      "id": 20,
      "plugin": "Fundamental",
      "version": "1.4.0",
      "model": "VCO",
      "params": [
        {
          "id": 0,
          "value": 1.0
        },
        {
          "id": 1,
          "value": 1.0
        },
        {
          "id": 2,
          "value": -5.66996717
        },
        {
          "id": 3,
          "value": 0.00200024992
        },
        {
          "id": 4,
          "value": 0.484499991
        },
        {
          "id": 5,
          "value": 0.514699638
        },
        {
          "id": 6,
          "value": 0.055499848
        }
      ],
      "leftModuleId": 19,
      "rightModuleId": 21,
      "pos": [
        46,
        3
      ]
    },
    {
      "id": 21,
      "plugin": "Fundamental",
      "version": "1.4.0",
      "model": "VCF",
      "params": [
        {
          "id": 0,
          "value": 0.643500209
        },
        {
          "id": 1,
          "value": 0.5
        },
        {
          "id": 2,
          "value": 0.234000027
        },
        {
          "id": 3,
          "value": 1.0
        },
        {
          "id": 4,
          "value": 0.0
        }
      ],
      "leftModuleId": 20,
      "rightModuleId": 22,
      "pos": [
        56,
        3
      ]
    },
    {
      "id": 22,
      "plugin": "Fundamental",
      "version": "1.4.0",
      "model": "ADSR",
      "params": [
        {
          "id": 0,
          "value": 0.589500129
        },
        {
          "id": 1,
          "value": 0.743000448
        },
        {
          "id": 2,
          "value": 0.456500351
        },
        {
          "id": 3,
          "value": 0.773499489
        }
      ],
      "leftModuleId": 21,
      "rightModuleId": 23,
      "pos": [
        64,
        3
      ]
    },
    {
      "id": 23,
      "plugin": "Fundamental",
      "version": "1.4.0",
      "model": "Scope",
      "params": [
        {
          "id": 0,
          "value": 0.0
        },
        {
          "id": 1,
          "value": 0.0
        },
        {
          "id": 2,
          "value": 0.0
        },
        {
          "id": 3,
          "value": 0.0
        },
        {
          "id": 4,
          "value": 14.0
        },
        {
          "id": 5,
          "value": 0.0
        },
        {
          "id": 6,
          "value": 0.0
        },
        {
          "id": 7,
          "value": 0.0
        }
      ],
      "leftModuleId": 22,
      "data": {
        "lissajous": 0,
        "external": 0
      },
      "pos": [
        72,
        3
      ]
    },
    {
      "id": 24,
      "plugin": "Fundamental",
      "version": "1.4.0",
      "model": "Scope",
      "params": [
        {
          "id": 0,
          "value": 0.0
        },
        {
          "id": 1,
          "value": 0.0
        },
        {
          "id": 2,
          "value": 0.0
        },
        {
          "id": 3,
          "value": 0.0
        },
        {
          "id": 4,
          "value": 14.0
        },
        {
          "id": 5,
          "value": 0.0
        },
        {
          "id": 6,
          "value": 0.0
        },
        {
          "id": 7,
          "value": 0.0
        }
      ],
      "leftModuleId": 1,
      "rightModuleId": 29,
      "data": {
        "lissajous": 0,
        "external": 0
      },
      "pos": [
        105,
        2
      ]
    },
    {
      "id": 26,
      "plugin": "Core",
      "version": "1.1.6",
      "model": "MIDIToCVInterface",
      "params": [],
      "leftModuleId": 27,
      "rightModuleId": 30,
      "data": {
        "channels": 1,
        "polyMode": 0,
        "clockDivision": 24,
        "lastPitch": 8192,
        "lastMod": 0,
        "midi": {
          "driver": 1,
          "deviceName": "IAC Driver Bus 1",
          "channel": -1
        }
      },
      "pos": [
        144,
        2
      ]
    },
    {
      "id": 27,
      "plugin": "Fundamental",
      "version": "1.4.0",
      "model": "VCO",
      "params": [
        {
          "id": 0,
          "value": 1.0
        },
        {
          "id": 1,
          "value": 0.0
        },
        {
          "id": 2,
          "value": -13.1219625
        },
        {
          "id": 3,
          "value": -0.165999815
        },
        {
          "id": 4,
          "value": 0.484499991
        },
        {
          "id": 5,
          "value": 0.514699638
        },
        {
          "id": 6,
          "value": 0.055499848
        }
      ],
      "leftModuleId": 28,
      "rightModuleId": 26,
      "pos": [
        134,
        2
      ]
    },
    {
      "id": 28,
      "plugin": "Fundamental",
      "version": "1.4.0",
      "model": "VCF",
      "params": [
        {
          "id": 0,
          "value": 0.439500272
        },
        {
          "id": 1,
          "value": 0.5
        },
        {
          "id": 2,
          "value": 0.234000027
        },
        {
          "id": 3,
          "value": 1.0
        },
        {
          "id": 4,
          "value": 0.0
        }
      ],
      "leftModuleId": 29,
      "rightModuleId": 27,
      "pos": [
        126,
        2
      ]
    },
    {
      "id": 29,
      "plugin": "Fundamental",
      "version": "1.4.0",
      "model": "ADSR",
      "params": [
        {
          "id": 0,
          "value": 0.538500071
        },
        {
          "id": 1,
          "value": 0.524500012
        },
        {
          "id": 2,
          "value": 0.399499834
        },
        {
          "id": 3,
          "value": 0.412999928
        }
      ],
      "leftModuleId": 24,
      "rightModuleId": 28,
      "pos": [
        118,
        2
      ]
    },
    {
      "id": 30,
      "plugin": "VCV-Recorder",
      "version": "1.1.0",
      "model": "Recorder",
      "params": [
        {
          "id": 0,
          "value": 1.0
        },
        {
          "id": 1,
          "value": 0.0
        }
      ],
      "leftModuleId": 26,
      "data": {
        "format": "flac",
        "path": "/Users/gavinhardin/Google Drive (gchardin@ncsu.edu)/Music Composition with Computers/Concert Project/dna_music.flac",
        "incrementPath": true,
        "sampleRate": 44100,
        "depth": 16,
        "bitRate": 256000,
        "videoBitRate": 2048000
      },
      "pos": [
        152,
        2
      ]
    }
  ],
  "cables": [
    {
      "id": 0,
      "outputModuleId": 5,
      "outputId": 0,
      "inputModuleId": 3,
      "inputId": 0,
      "color": "#c91847"
    },
    {
      "id": 4,
      "outputModuleId": 6,
      "outputId": 0,
      "inputModuleId": 4,
      "inputId": 0,
      "color": "#c91847"
    },
    {
      "id": 5,
      "outputModuleId": 5,
      "outputId": 1,
      "inputModuleId": 6,
      "inputId": 4,
      "color": "#c9b70e"
    },
    {
      "id": 6,
      "outputModuleId": 6,
      "outputId": 0,
      "inputModuleId": 2,
      "inputId": 5,
      "color": "#0c8e15"
    },
    {
      "id": 7,
      "outputModuleId": 4,
      "outputId": 0,
      "inputModuleId": 2,
      "inputId": 1,
      "color": "#0986ad"
    },
    {
      "id": 8,
      "outputModuleId": 2,
      "outputId": 1,
      "inputModuleId": 7,
      "inputId": 0,
      "color": "#c9b70e"
    },
    {
      "id": 9,
      "outputModuleId": 5,
      "outputId": 6,
      "inputModuleId": 6,
      "inputId": 5,
      "color": "#c91847"
    },
    {
      "id": 10,
      "outputModuleId": 9,
      "outputId": 0,
      "inputModuleId": 10,
      "inputId": 0,
      "color": "#c91847"
    },
    {
      "id": 11,
      "outputModuleId": 9,
      "outputId": 1,
      "inputModuleId": 11,
      "inputId": 4,
      "color": "#0986ad"
    },
    {
      "id": 12,
      "outputModuleId": 9,
      "outputId": 6,
      "inputModuleId": 11,
      "inputId": 5,
      "color": "#c9b70e"
    },
    {
      "id": 14,
      "outputModuleId": 11,
      "outputId": 0,
      "inputModuleId": 12,
      "inputId": 0,
      "color": "#c91847"
    },
    {
      "id": 18,
      "outputModuleId": 15,
      "outputId": 0,
      "inputModuleId": 14,
      "inputId": 0,
      "color": "#c91847"
    },
    {
      "id": 19,
      "outputModuleId": 15,
      "outputId": 1,
      "inputModuleId": 17,
      "inputId": 4,
      "color": "#0986ad"
    },
    {
      "id": 20,
      "outputModuleId": 15,
      "outputId": 6,
      "inputModuleId": 17,
      "inputId": 5,
      "color": "#c9b70e"
    },
    {
      "id": 22,
      "outputModuleId": 17,
      "outputId": 0,
      "inputModuleId": 16,
      "inputId": 0,
      "color": "#c91847"
    },
    {
      "id": 23,
      "outputModuleId": 16,
      "outputId": 0,
      "inputModuleId": 2,
      "inputId": 3,
      "color": "#0986ad"
    },
    {
      "id": 24,
      "outputModuleId": 17,
      "outputId": 0,
      "inputModuleId": 2,
      "inputId": 7,
      "color": "#c9b70e"
    },
    {
      "id": 25,
      "outputModuleId": 2,
      "outputId": 3,
      "inputModuleId": 18,
      "inputId": 0,
      "color": "#0c8e15"
    },
    {
      "id": 26,
      "outputModuleId": 19,
      "outputId": 0,
      "inputModuleId": 20,
      "inputId": 0,
      "color": "#c91847"
    },
    {
      "id": 27,
      "outputModuleId": 19,
      "outputId": 1,
      "inputModuleId": 22,
      "inputId": 4,
      "color": "#0986ad"
    },
    {
      "id": 28,
      "outputModuleId": 19,
      "outputId": 6,
      "inputModuleId": 22,
      "inputId": 5,
      "color": "#c9b70e"
    },
    {
      "id": 30,
      "outputModuleId": 22,
      "outputId": 0,
      "inputModuleId": 21,
      "inputId": 0,
      "color": "#c91847"
    },
    {
      "id": 33,
      "outputModuleId": 2,
      "outputId": 4,
      "inputModuleId": 23,
      "inputId": 0,
      "color": "#0c8e15"
    },
    {
      "id": 36,
      "outputModuleId": 26,
      "outputId": 0,
      "inputModuleId": 27,
      "inputId": 0,
      "color": "#c9b70e"
    },
    {
      "id": 37,
      "outputModuleId": 26,
      "outputId": 1,
      "inputModuleId": 29,
      "inputId": 4,
      "color": "#0c8e15"
    },
    {
      "id": 38,
      "outputModuleId": 26,
      "outputId": 6,
      "inputModuleId": 29,
      "inputId": 5,
      "color": "#c91847"
    },
    {
      "id": 39,
      "outputModuleId": 27,
      "outputId": 0,
      "inputModuleId": 28,
      "inputId": 3,
      "color": "#0986ad"
    },
    {
      "id": 40,
      "outputModuleId": 29,
      "outputId": 0,
      "inputModuleId": 28,
      "inputId": 0,
      "color": "#c9b70e"
    },
    {
      "id": 13,
      "outputModuleId": 10,
      "outputId": 0,
      "inputModuleId": 12,
      "inputId": 3,
      "color": "#0c8e15"
    },
    {
      "id": 29,
      "outputModuleId": 20,
      "outputId": 1,
      "inputModuleId": 21,
      "inputId": 3,
      "color": "#0c8e15"
    },
    {
      "id": 47,
      "outputModuleId": 28,
      "outputId": 0,
      "inputModuleId": 2,
      "inputId": 2,
      "color": "#0c8e15"
    },
    {
      "id": 42,
      "outputModuleId": 29,
      "outputId": 0,
      "inputModuleId": 2,
      "inputId": 6,
      "color": "#c91847"
    },
    {
      "id": 43,
      "outputModuleId": 2,
      "outputId": 2,
      "inputModuleId": 24,
      "inputId": 0,
      "color": "#0986ad"
    },
    {
      "id": 52,
      "outputModuleId": 22,
      "outputId": 0,
      "inputModuleId": 2,
      "inputId": 8,
      "color": "#c9b70e"
    },
    {
      "id": 50,
      "outputModuleId": 21,
      "outputId": 0,
      "inputModuleId": 2,
      "inputId": 4,
      "color": "#c91847"
    },
    {
      "id": 21,
      "outputModuleId": 14,
      "outputId": 0,
      "inputModuleId": 16,
      "inputId": 3,
      "color": "#0c8e15"
    },
    {
      "id": 1,
      "outputModuleId": 3,
      "outputId": 2,
      "inputModuleId": 4,
      "inputId": 3,
      "color": "#0c8e15"
    },
    {
      "id": 53,
      "outputModuleId": 2,
      "outputId": 0,
      "inputModuleId": 30,
      "inputId": 2,
      "color": "#0986ad"
    },
    {
      "id": 54,
      "outputModuleId": 2,
      "outputId": 0,
      "inputModuleId": 30,
      "inputId": 3,
      "color": "#c9b70e"
    }
  ]
}